<svg width="13" height="13" viewBox="0 0 13 13" fill="none" xmlns="http://www.w3.org/2000/svg">
<path fill-rule="evenodd" clip-rule="evenodd" d="M2.31155 0.192017C1.87526 0.192017 1.45683 0.365334 1.14833 0.673841C0.839821 0.982348 0.666504 1.40077 0.666504 1.83707C0.666504 2.27336 0.839821 2.69179 1.14833 3.00029C1.45683 3.3088 1.87526 3.48212 2.31155 3.48212C2.74785 3.48212 3.16627 3.3088 3.47478 3.00029C3.78329 2.69179 3.9566 2.27336 3.9566 1.83707C3.9566 1.40077 3.78329 0.982348 3.47478 0.673841C3.16627 0.365334 2.74785 0.192017 2.31155 0.192017ZM1.5638 1.83707C1.5638 1.63875 1.64258 1.44856 1.78282 1.30833C1.92305 1.1681 2.11324 1.08932 2.31155 1.08932C2.50987 1.08932 2.70006 1.1681 2.84029 1.30833C2.98052 1.44856 3.0593 1.63875 3.0593 1.83707C3.0593 2.03538 2.98052 2.22558 2.84029 2.36581C2.70006 2.50604 2.50987 2.58482 2.31155 2.58482C2.11324 2.58482 1.92305 2.50604 1.78282 2.36581C1.64258 2.22558 1.5638 2.03538 1.5638 1.83707ZM0.666504 4.22987C0.666504 4.11088 0.713772 3.99676 0.79791 3.91262C0.882049 3.82849 0.996165 3.78122 1.11515 3.78122H3.50795C3.62694 3.78122 3.74106 3.82849 3.8252 3.91262C3.90934 3.99676 3.9566 4.11088 3.9566 4.22987V8.11817V12.0065C3.9566 12.1255 3.90934 12.2396 3.8252 12.3237C3.74106 12.4079 3.62694 12.4551 3.50795 12.4551H1.11515C0.996165 12.4551 0.882049 12.4079 0.79791 12.3237C0.713772 12.2396 0.666504 12.1255 0.666504 12.0065V4.22987ZM1.5638 4.67852V11.5578H3.0593V8.11817V4.67852H1.5638ZM4.85391 4.22987C4.85391 4.11088 4.90117 3.99676 4.98531 3.91262C5.06945 3.82849 5.18357 3.78122 5.30256 3.78122H7.69536C7.81435 3.78122 7.92846 3.82849 8.0126 3.91262C8.09674 3.99676 8.14401 4.11088 8.14401 4.22987V4.48949L8.40422 4.37762C8.85288 4.18589 9.32886 4.06578 9.81478 4.02169C11.4748 3.87095 12.9296 5.17502 12.9296 6.84999V12.0065C12.9296 12.1255 12.8823 12.2396 12.7982 12.3237C12.7141 12.4079 12.5999 12.4551 12.481 12.4551H10.0882C9.96917 12.4551 9.85505 12.4079 9.77091 12.3237C9.68677 12.2396 9.63951 12.1255 9.63951 12.0065V7.81907C9.63951 7.62075 9.56073 7.43056 9.4205 7.29033C9.28027 7.1501 9.09007 7.07132 8.89176 7.07132C8.69344 7.07132 8.50325 7.1501 8.36302 7.29033C8.22279 7.43056 8.14401 7.62075 8.14401 7.81907V12.0065C8.14401 12.1255 8.09674 12.2396 8.0126 12.3237C7.92846 12.4079 7.81435 12.4551 7.69536 12.4551H5.30256C5.18357 12.4551 5.06945 12.4079 4.98531 12.3237C4.90117 12.2396 4.85391 12.1255 4.85391 12.0065V4.22987ZM5.75121 4.67852V11.5578H7.24671V7.81907C7.24671 7.38277 7.42002 6.96435 7.72853 6.65584C8.03704 6.34734 8.45546 6.17402 8.89176 6.17402C9.32805 6.17402 9.74648 6.34734 10.055 6.65584C10.3635 6.96435 10.5368 7.38277 10.5368 7.81907V11.5578H12.0323V6.84999C12.0323 5.71101 11.0387 4.81132 9.89673 4.91541C9.50442 4.9511 9.12011 5.04798 8.75776 5.20254L7.87242 5.5824C7.80414 5.61173 7.72963 5.62364 7.65561 5.61705C7.58158 5.61047 7.51035 5.5856 7.44831 5.54467C7.38627 5.50375 7.33537 5.44806 7.30018 5.3826C7.265 5.31714 7.24662 5.24396 7.24671 5.16964V4.67852H5.75121Z" fill="white"/>
</svg>
