<svg width="6" height="7" viewBox="0 0 6 7" fill="none" xmlns="http://www.w3.org/2000/svg">
<path d="M5.37496 3.60517C5.44878 4.10302 5.36375 4.61148 5.13194 5.05821C4.90014 5.50495 4.53338 5.86722 4.08382 6.09349C3.63426 6.31977 3.1248 6.39853 2.62789 6.31857C2.13099 6.23861 1.67195 6.00401 1.31607 5.64812C0.96019 5.29224 0.725585 4.8332 0.645626 4.3363C0.565668 3.8394 0.644429 3.32994 0.870705 2.88038C1.09698 2.43082 1.45925 2.06405 1.90598 1.83225C2.35272 1.60045 2.86117 1.51541 3.35902 1.58924C3.86685 1.66454 4.33699 1.90118 4.7 2.26419C5.06302 2.62721 5.29965 3.09735 5.37496 3.60517Z" stroke="#F4F7FF" stroke-width="1.1964" stroke-linecap="round" stroke-linejoin="round"/>
</svg>
