<svg width="56" height="10" viewBox="0 0 56 10" fill="none" xmlns="http://www.w3.org/2000/svg">
<path d="M0.0864258 0.219641H1.46334V3.91227L3.21577 0.219641H4.59268L2.95291 3.43661L4.61772 8.98182H3.17822L2.0141 5.07639L1.46334 6.19044V8.98182H0.0864258V0.219641Z" fill="#486A6E"/>
<path d="M6.33338 0.219641H8.19847L9.62546 8.98182H8.24855L7.9982 7.2419V7.26693H6.43352L6.18318 8.98182H4.9064L6.33338 0.219641ZM7.83547 6.07778L7.22212 1.74676H7.19708L6.59625 6.07778H7.83547Z" fill="#486A6E"/>
<path d="M12.0468 9.10699C11.3792 9.10699 10.8743 8.91923 10.5322 8.54371C10.19 8.15984 10.019 7.61325 10.019 6.90393V6.40323H11.3208V7.00407C11.3208 7.57152 11.5586 7.85525 12.0343 7.85525C12.2679 7.85525 12.4432 7.78849 12.56 7.65497C12.6852 7.51311 12.7478 7.2878 12.7478 6.97903C12.7478 6.61186 12.6643 6.29058 12.4974 6.01519C12.3305 5.73147 12.0218 5.3935 11.5711 5.00129C11.0037 4.50059 10.6073 4.04996 10.382 3.64941C10.1567 3.24051 10.044 2.78153 10.044 2.27249C10.044 1.57986 10.2193 1.04579 10.5697 0.670267C10.9202 0.286401 11.4293 0.0944672 12.0969 0.0944672C12.7561 0.0944672 13.2526 0.286401 13.5864 0.670267C13.9286 1.04579 14.0996 1.58821 14.0996 2.29753V2.66053H12.7978V2.20991C12.7978 1.90949 12.7394 1.69252 12.6226 1.559C12.5058 1.41714 12.3347 1.34621 12.1094 1.34621C11.6504 1.34621 11.4209 1.62576 11.4209 2.18487C11.4209 2.50198 11.5044 2.79822 11.6713 3.07361C11.8465 3.34899 12.1594 3.68279 12.6101 4.075C13.1859 4.57569 13.5823 5.03049 13.7992 5.43939C14.0162 5.8483 14.1247 6.32813 14.1247 6.87889C14.1247 7.59656 13.9453 8.14732 13.5864 8.53119C13.2359 8.91506 12.7227 9.10699 12.0468 9.10699Z" fill="#486A6E"/>
<path d="M14.9142 0.219641H16.2911V3.7871H17.7681V0.219641H19.145V8.98182H17.7681V5.03884H16.2911V8.98182H14.9142V0.219641Z" fill="#486A6E"/>
<path d="M20.1705 0.219641H22.1357L23.0119 6.49085H23.037L23.9132 0.219641H25.8784V8.98182H24.5766V2.3476H24.5516L23.5502 8.98182H22.3986L21.3972 2.3476H21.3722V8.98182H20.1705V0.219641Z" fill="#486A6E"/>
<path d="M26.9059 0.219641H28.2828V8.98182H26.9059V0.219641Z" fill="#486A6E"/>
<path d="M29.314 0.219641H31.3544C32.0637 0.219641 32.5811 0.38654 32.9065 0.720337C33.232 1.04579 33.3947 1.55066 33.3947 2.23494V2.77319C33.3947 3.68279 33.0943 4.25859 32.4935 4.50059V4.52562C32.8273 4.62576 33.0609 4.83021 33.1944 5.13898C33.3363 5.44774 33.4072 5.86081 33.4072 6.3782V7.91784C33.4072 8.16819 33.4156 8.37264 33.4323 8.53119C33.449 8.6814 33.4907 8.83161 33.5574 8.98182H32.1555C32.1054 8.83995 32.072 8.70643 32.0554 8.58126C32.0387 8.45609 32.0303 8.23077 32.0303 7.90532V6.30309C32.0303 5.90254 31.9636 5.62298 31.83 5.46443C31.7049 5.30588 31.4837 5.2266 31.1666 5.2266H30.691V8.98182H29.314V0.219641ZM31.1917 3.97486C31.467 3.97486 31.6715 3.90393 31.805 3.76206C31.9469 3.6202 32.0178 3.38237 32.0178 3.04857V2.37263C32.0178 2.05553 31.9594 1.82604 31.8426 1.68418C31.7341 1.54231 31.5588 1.47138 31.3168 1.47138H30.691V3.97486H31.1917Z" fill="#486A6E"/>
<path d="M36.3673 0.219641H38.4702C39.1545 0.219641 39.6677 0.40323 40.0099 0.770407C40.352 1.13758 40.5231 1.67583 40.5231 2.38515V6.81631C40.5231 7.52563 40.352 8.06387 40.0099 8.43105C39.6677 8.79823 39.1545 8.98182 38.4702 8.98182H36.3673V0.219641ZM38.4452 7.73008C38.6705 7.73008 38.8416 7.66332 38.9584 7.5298C39.0836 7.39628 39.1462 7.17931 39.1462 6.87889V2.32256C39.1462 2.02215 39.0836 1.80518 38.9584 1.67166C38.8416 1.53814 38.6705 1.47138 38.4452 1.47138H37.7442V7.73008H38.4452Z" fill="#486A6E"/>
<path d="M42.492 0.219641H44.3571L45.7841 8.98182H44.4072L44.1568 7.2419V7.26693H42.5922L42.3418 8.98182H41.065L42.492 0.219641ZM43.9941 6.07778L43.3808 1.74676H43.3557L42.7549 6.07778H43.9941Z" fill="#486A6E"/>
<path d="M48.2054 9.10699C47.5378 9.10699 47.033 8.91923 46.6908 8.54371C46.3487 8.15984 46.1776 7.61325 46.1776 6.90393V6.40323H47.4794V7.00407C47.4794 7.57152 47.7172 7.85525 48.1929 7.85525C48.4266 7.85525 48.6018 7.78849 48.7186 7.65497C48.8438 7.51311 48.9064 7.2878 48.9064 6.97903C48.9064 6.61186 48.823 6.29058 48.6561 6.01519C48.4892 5.73147 48.1804 5.3935 47.7298 5.00129C47.1623 4.50059 46.7659 4.04996 46.5406 3.64941C46.3153 3.24051 46.2026 2.78153 46.2026 2.27249C46.2026 1.57986 46.3779 1.04579 46.7284 0.670267C47.0789 0.286401 47.5879 0.0944672 48.2555 0.0944672C48.9147 0.0944672 49.4113 0.286401 49.7451 0.670267C50.0872 1.04579 50.2583 1.58821 50.2583 2.29753V2.66053H48.9565V2.20991C48.9565 1.90949 48.8981 1.69252 48.7812 1.559C48.6644 1.41714 48.4933 1.34621 48.268 1.34621C47.809 1.34621 47.5796 1.62576 47.5796 2.18487C47.5796 2.50198 47.663 2.79822 47.8299 3.07361C48.0051 3.34899 48.3181 3.68279 48.7687 4.075C49.3445 4.57569 49.7409 5.03049 49.9579 5.43939C50.1748 5.8483 50.2833 6.32813 50.2833 6.87889C50.2833 7.59656 50.1039 8.14732 49.7451 8.53119C49.3946 8.91506 48.8814 9.10699 48.2054 9.10699Z" fill="#486A6E"/>
<path d="M51.0728 0.219641H52.4497V3.7871H53.9268V0.219641H55.3037V8.98182H53.9268V5.03884H52.4497V8.98182H51.0728V0.219641Z" fill="#486A6E"/>
</svg>
