<svg width="34" height="13" viewBox="0 0 34 13" fill="none" xmlns="http://www.w3.org/2000/svg">
<path d="M8.00879 0.256454C6.72044 0.256454 5.48488 0.768247 4.57388 1.67925L1.60077 4.65236C0.689771 5.56335 0.177979 6.79892 0.177979 8.08727C0.177979 10.7701 2.35285 12.945 5.0357 12.945C6.32405 12.945 7.55962 12.4332 8.47062 11.5222L10.5271 9.46567L16.5191 3.47368C16.9542 3.03859 17.5443 2.79416 18.1596 2.79416C19.1898 2.79416 20.0631 3.46556 20.3659 4.39464L22.257 2.50358C21.3943 1.15241 19.8816 0.256454 18.1596 0.256454C16.8713 0.256454 15.6357 0.768247 14.7247 1.67925L6.6762 9.72777C6.24111 10.1629 5.65101 10.4073 5.0357 10.4073C3.75439 10.4073 2.71569 9.3686 2.71569 8.08727C2.71569 7.47196 2.96011 6.88186 3.3952 6.44677L6.36829 3.47368C6.80338 3.03859 7.39349 2.79416 8.00879 2.79416C9.03898 2.79416 9.91229 3.46559 10.2151 4.3947L12.1062 2.50362C11.2435 1.15243 9.7308 0.256454 8.00879 0.256454Z" fill="#486A6F"/>
<path d="M16.827 9.72777C16.3919 10.1629 15.8018 10.4073 15.1865 10.4073C14.1565 10.4073 13.2833 9.73606 12.9804 8.80713L11.0894 10.6981C11.9521 12.0491 13.4647 12.945 15.1865 12.945C16.4749 12.945 17.7105 12.4332 18.6214 11.5222L26.67 3.47368C27.105 3.03859 27.6951 2.79416 28.3105 2.79416C29.5918 2.79416 30.6305 3.83286 30.6305 5.11418C30.6305 5.72949 30.386 6.31959 29.951 6.75468L26.9779 9.72777C26.5428 10.1629 25.9527 10.4073 25.3374 10.4073C24.3073 10.4073 23.434 9.73593 23.1311 8.80692L21.2401 10.698C22.1028 12.0491 23.6154 12.945 25.3374 12.945C26.6257 12.945 27.8613 12.4332 28.7723 11.5222L31.7454 8.54909C32.6564 7.6381 33.1682 6.40253 33.1682 5.11418C33.1682 2.43133 30.9933 0.256454 28.3105 0.256454C27.0221 0.256454 25.7865 0.768247 24.8755 1.67925L16.827 9.72777Z" fill="#486A6F"/>
</svg>
