<svg width="26" height="18" viewBox="0 0 26 18" fill="none" xmlns="http://www.w3.org/2000/svg">
<path d="M23.9316 0.670382C23.9316 0.962371 24.1683 1.19907 24.4603 1.19907H24.989C25.281 1.19907 25.5177 0.962371 25.5177 0.670382C25.5177 0.378397 25.281 0.141695 24.989 0.141695H24.4603C24.1683 0.141695 23.9316 0.378397 23.9316 0.670382Z" fill="#486A6F"/>
<path d="M8.59965 17.0597H11.1679L10.4202 16.3121C10.222 16.1138 9.95301 16.0024 9.67259 16.0024H8.59965C4.51183 16.0024 1.198 12.6885 1.198 8.60072C1.198 4.51289 4.51183 1.19908 8.59965 1.19907H17.0587C21.1465 1.19907 24.4603 4.51289 24.4603 8.60072C24.4603 12.6885 21.1465 16.0024 17.0587 16.0024H13.8943C13.4737 16.0024 13.0702 15.8353 12.7728 15.5378L11.8969 14.6619C11.4011 14.1661 10.7287 13.8876 10.0276 13.8876H8.59965C5.67976 13.8876 3.31276 11.5206 3.31276 8.60072C3.31276 5.68083 5.67976 3.31383 8.59965 3.31383H17.0587C19.9786 3.31383 22.3456 5.68083 22.3456 8.60072C22.3456 11.5206 19.9786 13.8876 17.0587 13.8876H15.0269C14.6062 13.8876 14.2028 13.7205 13.9053 13.4231L13.0293 12.5471C12.5336 12.0514 11.8612 11.7729 11.1602 11.7729H8.59965C6.84774 11.7729 5.42752 10.3526 5.42752 8.60072C5.42752 6.84881 6.84774 5.42858 8.59965 5.42858H17.0587C18.8106 5.42858 20.2308 6.84881 20.2308 8.60072C20.2308 10.3313 18.845 11.7382 17.1226 11.7722L16.3486 11.7729C15.9279 11.7729 15.5245 11.6057 15.227 11.3083L14.3511 10.4324C13.9443 10.0256 13.4186 9.76506 12.8557 9.68466L12.8292 9.6581H8.59965C8.01568 9.6581 7.54227 9.18469 7.54227 8.60072C7.54227 8.01675 8.01568 7.54334 8.59965 7.54334H17.0587C17.6426 7.54334 18.1161 8.01675 18.1161 8.60072C18.1161 9.18469 17.6426 9.6581 17.0587 9.6581H14.9439L15.6916 10.4058C15.8899 10.6041 16.1588 10.7155 16.4393 10.7155H17.0587C18.2266 10.7155 19.1734 9.76866 19.1734 8.60072C19.1734 7.43278 18.2266 6.48596 17.0587 6.48596H8.59965C7.43171 6.48596 6.48489 7.43278 6.48489 8.60072C6.48489 9.76866 7.43171 10.7155 8.59965 10.7155H12.4819C12.9025 10.7155 13.306 10.8826 13.6034 11.18L14.4794 12.056C14.9751 12.5517 15.6475 12.8302 16.3486 12.8302H17.323V12.8221C19.5358 12.6857 21.2882 10.8478 21.2882 8.60072C21.2882 6.26484 19.3946 4.37121 17.0587 4.37121H8.59965C6.26378 4.37121 4.37014 6.26484 4.37014 8.60072C4.37014 10.9366 6.26378 12.8302 8.59965 12.8302H11.1602C11.5808 12.8302 11.9842 12.9973 12.2817 13.2948L13.1577 14.1707C13.6534 14.6665 14.3258 14.945 15.0269 14.945H17.0587C20.5625 14.945 23.4029 12.1046 23.4029 8.60072C23.4029 5.09686 20.5625 2.25645 17.0587 2.25645H8.59965C5.0958 2.25645 2.25538 5.09686 2.25538 8.60072C2.25538 12.1046 5.0958 14.945 8.59965 14.945H10.0276C10.4483 14.945 10.8517 15.1121 11.1492 15.4095L12.0251 16.2855C12.5209 16.7812 13.1932 17.0597 13.8943 17.0597H17.0587C21.7305 17.0597 25.5177 13.2725 25.5177 8.60072C25.5177 3.92893 21.7305 0.141693 17.0587 0.141693L8.59965 0.141695C3.92786 0.141695 0.140625 3.92893 0.140625 8.60072C0.140625 13.2725 3.92786 17.0597 8.59965 17.0597Z" fill="#486A6F"/>
</svg>
