<svg width="109" height="18" viewBox="0 0 109 18" fill="none" xmlns="http://www.w3.org/2000/svg">
<path fill-rule="evenodd" clip-rule="evenodd" d="M46.0916 0.141693C50.7633 0.141693 54.5508 3.92893 54.5508 8.60072C54.5508 13.2725 50.7633 17.0597 46.0916 17.0597C41.4198 17.0597 37.6326 13.2725 37.6326 8.60072C37.6326 3.92893 41.4198 0.141693 46.0916 0.141693ZM45.7859 0.774678C44.8208 0.910487 43.9019 1.68592 43.1886 2.98283C42.9817 3.35901 42.795 3.77462 42.6324 4.22336C43.6023 3.97962 44.6677 3.83593 45.7859 3.8137V0.774678ZM41.9174 4.42653C42.1197 3.79158 42.3672 3.20741 42.6528 2.68813C43.0064 2.04522 43.4261 1.49004 43.8989 1.06363C41.3278 1.81033 39.3012 3.83693 38.5545 6.40801C38.9809 5.93519 39.5361 5.51554 40.179 5.16196C40.6983 4.87634 41.2825 4.62883 41.9174 4.42653ZM41.7143 5.14144C41.4705 6.11135 41.3268 7.17681 41.3046 8.29497H38.2656C38.4014 7.32992 39.1768 6.41102 40.4737 5.69775C40.8499 5.49084 41.2655 5.30415 41.7143 5.14144ZM41.9162 8.29497C41.9415 7.07471 42.1172 5.9291 42.4078 4.9169C43.42 4.62625 44.5656 4.45055 45.7859 4.4253V5.74614C45.3307 6.91154 44.4022 7.83991 43.2368 8.29497H41.9162ZM41.3046 8.90647H38.2656C38.4014 9.87152 39.1768 10.7904 40.4737 11.5037C40.8499 11.7106 41.2655 11.8973 41.7143 12.06C41.4705 11.0901 41.3268 10.0246 41.3046 8.90647ZM42.4078 12.2845C42.1172 11.2723 41.9415 10.1267 41.9162 8.90647H43.2368C44.4022 9.36152 45.3307 10.2899 45.7859 11.4553V12.7761C44.5656 12.7509 43.42 12.5752 42.4078 12.2845ZM41.9174 12.7749C41.2825 12.5726 40.6983 12.3251 40.179 12.0395C39.5361 11.6859 38.9809 11.2662 38.5545 10.7934C39.3012 13.3645 41.3278 15.3911 43.8989 16.1378C43.4261 15.7114 43.0064 15.1562 42.6528 14.5133C42.3672 13.994 42.1197 13.4098 41.9174 12.7749ZM45.7859 16.4268C44.8208 16.2909 43.9019 15.5155 43.1886 14.2186C42.9817 13.8424 42.795 13.4268 42.6324 12.9781C43.6023 13.2218 44.6677 13.3655 45.7859 13.3877V16.4268ZM48.2843 16.1378C48.7572 15.7114 49.1768 15.1562 49.5304 14.5133C49.8159 13.994 50.0637 13.4098 50.2659 12.7749C50.9007 12.5726 51.4848 12.3251 52.0042 12.0395C52.6471 11.6859 53.2024 11.2662 53.6288 10.7934C52.8818 13.3645 50.8555 15.3911 48.2843 16.1378ZM49.5511 12.9781C49.3882 13.4268 49.2013 13.8424 48.9945 14.2186C48.2813 15.5155 47.3624 16.2909 46.3974 16.4268V13.3877C47.5155 13.3655 48.581 13.2218 49.5511 12.9781ZM50.4689 12.06C50.9176 11.8973 51.3334 11.7106 51.7094 11.5037C53.0066 10.7904 53.7819 9.87152 53.9176 8.90647H50.8787C50.8563 10.0246 50.7125 11.0901 50.4689 12.06ZM50.2671 8.90647C50.2418 10.1267 50.0662 11.2723 49.7752 12.2845C48.7632 12.5752 47.6176 12.7509 46.3974 12.7761V11.4563C46.8524 10.2905 47.7811 9.36165 48.9469 8.90647H50.2671ZM50.8787 8.29497H53.9176C53.7819 7.32992 53.0066 6.41102 51.7094 5.69775C51.3334 5.49084 50.9176 5.30415 50.4689 5.14144C50.7125 6.11135 50.8563 7.17681 50.8787 8.29497ZM49.7752 4.9169C50.0662 5.9291 50.2418 7.07471 50.2671 8.29497H48.9469C47.7811 7.83979 46.8524 6.91099 46.3974 5.74516V4.4253C47.6176 4.45055 48.7632 4.62625 49.7752 4.9169ZM50.2659 4.42653C50.9007 4.62883 51.4848 4.87634 52.0042 5.16196C52.6471 5.51554 53.2024 5.93519 53.6288 6.40801C52.8818 3.83693 50.8555 1.81033 48.2843 1.06363C48.7572 1.49004 49.1768 2.04522 49.5304 2.68813C49.8159 3.20741 50.0637 3.79158 50.2659 4.42653ZM46.3974 0.774678C47.3624 0.910487 48.2813 1.68592 48.9945 2.98283C49.2013 3.35902 49.3882 3.77462 49.5511 4.22336C48.581 3.97962 47.5155 3.83593 46.3974 3.8137V0.774678Z" fill="#486A6F"/>
<path d="M6.74816 12.7067H0.436035V4.41687H6.68895V6.03931H2.24796V7.72097H6.15603V9.34341H2.24796V11.0843H6.74816V12.7067Z" fill="#486A6F"/>
<path d="M16.6595 12.7067H14.8476V7.29463L12.5146 10.8356H12.4672L10.1579 7.33016V12.7067H8.36968V4.41687H10.3356L12.5146 7.92229L14.6936 4.41687H16.6595V12.7067Z" fill="#486A6F"/>
<path d="M24.9632 12.7067H18.651V4.41687H24.9039V6.03931H20.4629V7.72097H24.371V9.34341H20.4629V11.0843H24.9632V12.7067Z" fill="#486A6F"/>
<path d="M33.8679 11.3685C33.6547 11.5975 33.4337 11.8027 33.2047 11.9843C32.9757 12.1659 32.7231 12.3238 32.4468 12.458C32.1783 12.5843 31.8823 12.6791 31.5586 12.7422C31.2349 12.8133 30.8717 12.8488 30.469 12.8488C29.8611 12.8488 29.2966 12.7383 28.7756 12.5172C28.2545 12.2962 27.8045 11.9962 27.4255 11.6172C27.0465 11.2303 26.7505 10.7764 26.5373 10.2553C26.3241 9.73422 26.2175 9.17761 26.2175 8.58548V8.5618C26.2175 7.96966 26.3241 7.41701 26.5373 6.90383C26.7505 6.38275 27.0465 5.92878 27.4255 5.54192C27.8045 5.14717 28.2584 4.83926 28.7874 4.6182C29.3164 4.38924 29.9006 4.27476 30.5401 4.27476C30.927 4.27476 31.2783 4.30634 31.5941 4.3695C31.9178 4.43266 32.2099 4.51951 32.4705 4.63004C32.731 4.74057 32.9718 4.87479 33.1929 5.03269C33.4139 5.19059 33.6192 5.36428 33.8087 5.55377L32.6481 6.89198C32.3244 6.59987 31.9928 6.37091 31.6533 6.20511C31.3217 6.03931 30.9467 5.95642 30.5283 5.95642C30.1809 5.95642 29.8572 6.02352 29.5572 6.15774C29.2651 6.29196 29.0124 6.47749 28.7992 6.71434C28.5861 6.9512 28.4203 7.22753 28.3018 7.54333C28.1834 7.85124 28.1242 8.18283 28.1242 8.53811V8.5618C28.1242 8.91707 28.1834 9.25262 28.3018 9.56842C28.4203 9.88422 28.5821 10.1606 28.7874 10.3974C29.0006 10.6343 29.2532 10.8237 29.5453 10.9659C29.8453 11.1001 30.173 11.1672 30.5283 11.1672C31.002 11.1672 31.4007 11.0803 31.7244 10.9066C32.056 10.7329 32.3836 10.4961 32.7073 10.1961L33.8679 11.3685Z" fill="#486A6F"/>
<path d="M64.6965 13.0783H62.8727V9.75051H59.5094V13.0783H57.6856V4.78844H59.5094V8.06885H62.8727V4.78844H64.6965V13.0783Z" fill="#486A6F"/>
<path d="M73.0546 9.9163C73.0546 10.3742 72.9677 10.8045 72.7941 11.2071C72.6204 11.6019 72.3796 11.9493 72.0717 12.2493C71.7637 12.5493 71.4006 12.7862 70.9821 12.9599C70.5637 13.1336 70.1058 13.2204 69.6084 13.2204C69.1189 13.2204 68.6649 13.1375 68.2465 12.9717C67.828 12.798 67.4649 12.5651 67.157 12.273C66.8569 11.973 66.6201 11.6256 66.4464 11.2308C66.2727 10.8282 66.1859 10.3979 66.1859 9.93999V9.9163C66.1859 9.45839 66.2727 9.03205 66.4464 8.6373C66.6201 8.23465 66.8609 7.88332 67.1688 7.5833C67.4767 7.28329 67.8399 7.04644 68.2583 6.87274C68.6768 6.69905 69.1347 6.61221 69.6321 6.61221C70.1216 6.61221 70.5755 6.69905 70.994 6.87274C71.4124 7.03854 71.7716 7.27145 72.0717 7.57146C72.3796 7.86358 72.6204 8.21096 72.7941 8.61361C72.9677 9.00837 73.0546 9.4347 73.0546 9.89262V9.9163ZM71.2782 9.93999V9.9163C71.2782 9.67945 71.2387 9.45839 71.1598 9.25311C71.0808 9.03995 70.9663 8.85441 70.8163 8.69651C70.6663 8.53071 70.4887 8.40044 70.2834 8.3057C70.0781 8.21096 69.8531 8.16359 69.6084 8.16359C69.3478 8.16359 69.1149 8.21096 68.9097 8.3057C68.7123 8.39255 68.5425 8.51492 68.4004 8.67283C68.2583 8.83073 68.1478 9.01626 68.0688 9.22943C67.9978 9.4347 67.9623 9.65576 67.9623 9.89262V9.9163C67.9623 10.1532 68.0017 10.3782 68.0807 10.5913C68.1596 10.7966 68.2741 10.9821 68.4241 11.1479C68.5741 11.3058 68.7478 11.4322 68.9452 11.5269C69.1505 11.6216 69.3794 11.669 69.6321 11.669C69.8926 11.669 70.1216 11.6256 70.3189 11.5387C70.5242 11.444 70.6979 11.3177 70.84 11.1598C70.9821 11.0019 71.0887 10.8203 71.1598 10.615C71.2387 10.4019 71.2782 10.1768 71.2782 9.93999Z" fill="#486A6F"/>
<path d="M76.241 13.0783H74.4409V4.43316H76.241V13.0783Z" fill="#486A6F"/>
<path d="M79.862 6.03192H77.9672V4.43316H79.862V6.03192ZM79.8146 13.0783H78.0145V6.73063H79.8146V13.0783Z" fill="#486A6F"/>
<path d="M87.8884 13.0783H86.0883V12.1664C85.8673 12.4664 85.5988 12.7151 85.283 12.9125C84.9751 13.102 84.5843 13.1967 84.1106 13.1967C83.7395 13.1967 83.3803 13.1257 83.0329 12.9835C82.6856 12.8414 82.3776 12.6322 82.1092 12.3559C81.8408 12.0717 81.6237 11.7282 81.4579 11.3256C81.3 10.915 81.221 10.4453 81.221 9.9163V9.89262C81.221 9.36365 81.3 8.89784 81.4579 8.49519C81.6237 8.08464 81.8368 7.7412 82.0974 7.46488C82.3658 7.18065 82.6737 6.96749 83.0211 6.82537C83.3685 6.68326 83.7317 6.61221 84.1106 6.61221C84.5922 6.61221 84.987 6.70695 85.2949 6.89643C85.6107 7.08591 85.8752 7.30697 86.0883 7.55962V4.43316H87.8884V13.0783ZM86.112 9.9163V9.89262C86.112 9.63208 86.0686 9.39523 85.9818 9.18206C85.9028 8.961 85.7923 8.77546 85.6502 8.62545C85.5159 8.46755 85.3541 8.34913 85.1646 8.27018C84.983 8.18333 84.7857 8.13991 84.5725 8.13991C84.3593 8.13991 84.158 8.18333 83.9685 8.27018C83.7869 8.34913 83.6251 8.46755 83.483 8.62545C83.3408 8.77546 83.2264 8.95705 83.1395 9.17022C83.0606 9.38338 83.0211 9.62418 83.0211 9.89262V9.9163C83.0211 10.1768 83.0606 10.4176 83.1395 10.6387C83.2264 10.8519 83.3408 11.0374 83.483 11.1953C83.6251 11.3453 83.7869 11.4637 83.9685 11.5506C84.158 11.6295 84.3593 11.669 84.5725 11.669C84.7857 11.669 84.983 11.6295 85.1646 11.5506C85.3541 11.4637 85.5159 11.3453 85.6502 11.1953C85.7923 11.0374 85.9028 10.8519 85.9818 10.6387C86.0686 10.4176 86.112 10.1768 86.112 9.9163Z" fill="#486A6F"/>
<path d="M94.9562 13.0783H93.2153V12.3914C92.9942 12.6362 92.7297 12.8335 92.4218 12.9835C92.1139 13.1257 91.7389 13.1967 91.2968 13.1967C90.9968 13.1967 90.7125 13.1572 90.4441 13.0783C90.1836 12.9914 89.9546 12.8651 89.7572 12.6993C89.5599 12.5335 89.402 12.3322 89.2835 12.0953C89.173 11.8506 89.1177 11.5703 89.1177 11.2545V11.2308C89.1177 10.8835 89.1809 10.5834 89.3072 10.3308C89.4335 10.0782 89.6072 9.86893 89.8283 9.70313C90.0573 9.53734 90.3257 9.41496 90.6336 9.33601C90.9494 9.24917 91.2968 9.20574 91.6758 9.20574C91.9995 9.20574 92.2797 9.22943 92.5166 9.2768C92.7613 9.32417 92.9982 9.38733 93.2271 9.46628V9.3597C93.2271 8.98073 93.1127 8.69256 92.8837 8.49519C92.6547 8.29781 92.3153 8.19912 91.8652 8.19912C91.5179 8.19912 91.2099 8.2307 90.9415 8.29386C90.681 8.34913 90.4046 8.43202 90.1125 8.54256L89.6625 7.16881C90.0099 7.0188 90.373 6.89643 90.752 6.80169C91.131 6.70695 91.5889 6.65958 92.1258 6.65958C93.1127 6.65958 93.8311 6.90038 94.2811 7.38198C94.7312 7.86358 94.9562 8.53466 94.9562 9.39523V13.0783ZM93.2508 10.84V10.5203C93.0929 10.4492 92.9153 10.394 92.7179 10.3545C92.5284 10.3071 92.3231 10.2834 92.1021 10.2834C91.7152 10.2834 91.4113 10.3584 91.1902 10.5084C90.9691 10.6584 90.8586 10.8756 90.8586 11.1598V11.1835C90.8586 11.4282 90.9494 11.6177 91.131 11.7519C91.3126 11.8861 91.5494 11.9532 91.8415 11.9532C92.2679 11.9532 92.6074 11.8506 92.86 11.6453C93.1205 11.4401 93.2508 11.1716 93.2508 10.84Z" fill="#486A6F"/>
<path d="M102.545 6.73063L100.105 13.2322C99.9869 13.5559 99.8605 13.8283 99.7263 14.0494C99.5921 14.2783 99.4421 14.4639 99.2763 14.606C99.1184 14.7481 98.9368 14.8507 98.7316 14.9139C98.5263 14.9771 98.2894 15.0086 98.021 15.0086C97.6894 15.0086 97.3973 14.9692 97.1446 14.8902C96.892 14.8113 96.6512 14.7047 96.4222 14.5705L97.0262 13.2678C97.1446 13.3388 97.271 13.398 97.4052 13.4454C97.5473 13.4928 97.6776 13.5165 97.796 13.5165C97.9539 13.5165 98.0763 13.4849 98.1631 13.4217C98.2579 13.3665 98.3447 13.2599 98.4236 13.102L95.9367 6.73063H97.8434L99.2881 11.0532L100.674 6.73063H102.545Z" fill="#486A6F"/>
<path d="M108.26 11.1479C108.26 11.5032 108.197 11.8111 108.071 12.0717C107.952 12.3243 107.783 12.5335 107.562 12.6993C107.34 12.8651 107.08 12.9914 106.78 13.0783C106.488 13.1572 106.172 13.1967 105.833 13.1967C105.382 13.1967 104.921 13.1217 104.447 12.9717C103.981 12.8138 103.535 12.5691 103.109 12.2375L103.878 11.0532C104.226 11.3058 104.569 11.4953 104.909 11.6216C105.256 11.748 105.58 11.8111 105.88 11.8111C106.14 11.8111 106.33 11.7677 106.448 11.6809C106.575 11.594 106.638 11.4795 106.638 11.3374V11.3137C106.638 11.219 106.602 11.1361 106.531 11.065C106.46 10.994 106.361 10.9348 106.235 10.8874C106.117 10.8321 105.979 10.7808 105.821 10.7334C105.663 10.6861 105.497 10.6348 105.323 10.5795C105.102 10.5163 104.877 10.4413 104.648 10.3545C104.427 10.2597 104.226 10.1413 104.044 9.9992C103.863 9.84919 103.713 9.66761 103.594 9.45444C103.484 9.24127 103.428 8.98073 103.428 8.67283V8.64914C103.428 8.32544 103.488 8.04122 103.606 7.79647C103.732 7.54383 103.898 7.33066 104.103 7.15697C104.317 6.98328 104.561 6.85301 104.838 6.76616C105.122 6.67931 105.426 6.63589 105.75 6.63589C106.152 6.63589 106.559 6.703 106.969 6.83722C107.388 6.96354 107.771 7.14118 108.118 7.37014L107.431 8.61361C107.115 8.43202 106.808 8.28991 106.508 8.18728C106.208 8.07675 105.943 8.02148 105.714 8.02148C105.493 8.02148 105.327 8.0649 105.217 8.15175C105.106 8.2307 105.051 8.33334 105.051 8.45966V8.48334C105.051 8.57019 105.086 8.64914 105.157 8.7202C105.229 8.78336 105.323 8.84652 105.442 8.90968C105.56 8.96494 105.694 9.02021 105.844 9.07547C106.002 9.13074 106.168 9.18601 106.342 9.24127C106.563 9.31233 106.788 9.39917 107.017 9.50181C107.246 9.59655 107.451 9.71498 107.633 9.85709C107.814 9.9992 107.964 10.1729 108.083 10.3782C108.201 10.5834 108.26 10.8321 108.26 11.1243V11.1479Z" fill="#486A6F"/>
</svg>
