<svg width="42" height="42" viewBox="0 0 42 42" fill="none" xmlns="http://www.w3.org/2000/svg">
<rect x="0.49292" y="0.88501" width="40.5417" height="40.5417" rx="2.89583" fill="#678C92"/>
<rect x="0.49292" y="0.88501" width="40.5417" height="40.5417" rx="2.89583" fill="url(#paint0_linear_14_420)" fill-opacity="0.2"/>
<path d="M23.4764 13.9163C23.8891 13.9162 24.2865 14.0728 24.5882 14.3545C24.8899 14.6362 25.0734 15.0219 25.1017 15.4337L25.1053 15.5452V16.0874L26.3722 16.0881C26.785 16.0881 27.1824 16.2447 27.4841 16.5264C27.7858 16.8081 27.9693 17.1938 27.9975 17.6056L28.0011 17.717V24.5946C28.0012 25.0074 27.8446 25.4048 27.5629 25.7065C27.2812 26.0082 26.8955 26.1917 26.4837 26.2199L26.3722 26.2236H25.1053V26.7665C25.1054 27.1793 24.9487 27.5766 24.667 27.8783C24.3854 28.18 23.9997 28.3636 23.5879 28.3918L23.4764 28.3954H18.0467C17.634 28.3955 17.2366 28.2388 16.9349 27.9572C16.6332 27.6755 16.4497 27.2898 16.4214 26.878L16.4178 26.7665V26.2236H15.1509C14.7381 26.2236 14.3408 26.067 14.0391 25.7853C13.7374 25.5036 13.5538 25.1179 13.5256 24.7061L13.522 24.5946V17.717C13.5219 17.3043 13.6786 16.9069 13.9602 16.6052C14.2419 16.3035 14.6276 16.12 15.0394 16.0918L15.1509 16.0881L16.4178 16.0874V15.5452C16.4178 15.1324 16.5744 14.735 16.8561 14.4333C17.1377 14.1316 17.5234 13.9481 17.9352 13.9199L18.0467 13.9163H23.4764ZM23.4764 15.0022H18.0467C17.9155 15.0022 17.7887 15.0497 17.6899 15.136C17.591 15.2222 17.5267 15.3413 17.5088 15.4713L17.5037 15.5452V26.7665C17.5037 27.0416 17.7079 27.2689 17.9729 27.3044L18.0467 27.3095H23.4764C23.6076 27.3095 23.7344 27.262 23.8333 27.1757C23.9321 27.0895 23.9965 26.9704 24.0143 26.8404L24.0194 26.7665V15.5452C24.0194 15.414 23.9718 15.2872 23.8856 15.1883C23.7994 15.0894 23.6802 15.0251 23.5502 15.0073L23.4764 15.0022ZM16.4178 17.1733L15.1509 17.1741C15.0197 17.1741 14.8929 17.2216 14.794 17.3078C14.6951 17.3941 14.6308 17.5132 14.613 17.6432L14.6079 17.717V24.5946C14.6079 24.8697 14.8121 25.0971 15.077 25.1325L15.1509 25.1376H16.4178V17.1733ZM26.3722 17.1741L25.1053 17.1733V25.1376H26.3722C26.5034 25.1376 26.6302 25.0901 26.7291 25.0038C26.828 24.9176 26.8923 24.7985 26.9101 24.6685L26.9152 24.5946V17.717C26.9152 17.573 26.858 17.4349 26.7562 17.3331C26.6543 17.2313 26.5162 17.1741 26.3722 17.1741Z" fill="white"/>
<defs>
<linearGradient id="paint0_linear_14_420" x1="0.49292" y1="0.88501" x2="41.0346" y2="41.4267" gradientUnits="userSpaceOnUse">
<stop stop-color="#678C92"/>
<stop offset="1" stop-color="#9ED5DE"/>
</linearGradient>
</defs>
</svg>
