<svg width="42" height="42" viewBox="0 0 42 42" fill="none" xmlns="http://www.w3.org/2000/svg">
<rect x="0.701172" y="0.545776" width="40.5417" height="40.5417" rx="2.89583" fill="#678C92"/>
<rect x="0.701172" y="0.545776" width="40.5417" height="40.5417" rx="2.89583" fill="url(#paint0_linear_14_377)" fill-opacity="0.2"/>
<path d="M25.6507 23.5537L22.4608 16.7125C22.2794 16.3237 21.9511 16.0228 21.548 15.8761C21.1448 15.7294 20.6999 15.7488 20.3111 15.9301C19.9223 16.1115 19.6214 16.4398 19.4747 16.8429C19.328 17.2461 19.3475 17.691 19.5288 18.0798L22.719 24.9207C22.9003 25.3096 23.2286 25.6104 23.6317 25.7572C24.0348 25.9039 24.4797 25.8845 24.8685 25.7032C25.2574 25.5219 25.5582 25.1936 25.705 24.7905C25.8517 24.3874 25.832 23.9425 25.6507 23.5537Z" stroke="white" stroke-width="1.07833"/>
<path d="M20.8205 21.5002L19.2251 24.9207C19.1353 25.1132 19.0085 25.2862 18.8519 25.4297C18.6953 25.5732 18.5119 25.6845 18.3123 25.7571C18.1127 25.8298 17.9007 25.8624 17.6885 25.8531C17.4763 25.8438 17.2679 25.7928 17.0754 25.703C16.6867 25.5217 16.3859 25.1934 16.2392 24.7904C16.0924 24.3873 16.1118 23.9424 16.2931 23.5537L19.4553 16.7728" stroke="white" stroke-width="1.07833" stroke-linecap="round"/>
<path d="M17.0758 25.703C17.8855 26.0805 18.8478 25.7303 19.2254 24.9206C19.6029 24.111 19.2526 23.1486 18.443 22.7711C17.6334 22.3936 16.671 22.7439 16.2935 23.5535C15.9159 24.3631 16.2662 25.3255 17.0758 25.703Z" stroke="white" stroke-width="1.07833"/>
<defs>
<linearGradient id="paint0_linear_14_377" x1="0.701172" y1="0.545776" x2="41.2428" y2="41.0874" gradientUnits="userSpaceOnUse">
<stop stop-color="#678C92"/>
<stop offset="1" stop-color="#9ED5DE"/>
</linearGradient>
</defs>
</svg>
