<svg width="41" height="42" viewBox="0 0 41 42" fill="none" xmlns="http://www.w3.org/2000/svg">
<rect x="0.381836" y="0.545776" width="40.5417" height="40.5417" rx="2.89583" fill="#678C92"/>
<rect x="0.381836" y="0.545776" width="40.5417" height="40.5417" rx="2.89583" fill="url(#paint0_linear_14_388)" fill-opacity="0.2"/>
<path d="M17.7552 14.301C16.4112 14.301 15.1222 14.8349 14.1718 15.7853C13.2214 16.7357 12.6875 18.0247 12.6875 19.3687C12.6875 20.7128 13.2214 22.0018 14.1718 22.9521C15.1222 23.9025 16.4112 24.4364 17.7552 24.4364H18.5298C18.4611 23.9562 18.4611 23.4687 18.5298 22.9885H17.7552C16.7952 22.9885 15.8745 22.6072 15.1956 21.9283C14.5168 21.2495 14.1354 20.3288 14.1354 19.3687C14.1354 18.4087 14.5168 17.488 15.1956 16.8092C15.8745 16.1303 16.7952 15.7489 17.7552 15.7489H23.5469C24.0837 15.7488 24.6138 15.8681 25.0989 16.0982C25.5839 16.3282 26.0117 16.6633 26.3513 17.0791C26.6908 17.4949 26.9337 17.981 27.0622 18.5022C27.1907 19.0234 27.2016 19.5667 27.0943 20.0927C27.5208 20.5109 27.8703 21.0011 28.1266 21.5406C28.4931 20.7681 28.6581 19.9154 28.6063 19.062C28.5546 18.2085 28.2877 17.3821 27.8306 16.6595C27.3735 15.9369 26.741 15.3417 25.992 14.9294C25.243 14.517 24.4019 14.3008 23.5469 14.301H17.7552ZM23.5469 21.5406C22.9709 21.5406 22.4184 21.7694 22.0111 22.1767C21.6038 22.584 21.375 23.1365 21.375 23.7125C21.375 24.2885 21.6038 24.8409 22.0111 25.2482C22.4184 25.6555 22.9709 25.8844 23.5469 25.8844C24.1229 25.8844 24.6753 25.6555 25.0826 25.2482C25.4899 24.8409 25.7188 24.2885 25.7188 23.7125C25.7188 23.1365 25.4899 22.584 25.0826 22.1767C24.6753 21.7694 24.1229 21.5406 23.5469 21.5406ZM19.9271 23.7125C19.9272 23.1481 20.0593 22.5916 20.3129 22.0873C20.5664 21.5831 20.9343 21.1451 21.3872 20.8084C21.8402 20.4717 22.3656 20.2455 22.9215 20.148C23.4774 20.0505 24.0484 20.0843 24.5889 20.2468C25.1294 20.4093 25.6244 20.6959 26.0344 21.0837C26.4444 21.4716 26.7581 21.9499 26.9503 22.4806C27.1425 23.0112 27.208 23.5795 27.1414 24.1399C27.0749 24.7004 26.8783 25.2375 26.5672 25.7084L28.4025 27.5444L27.3788 28.5681L25.5428 26.7328C24.9972 27.0935 24.3641 27.2995 23.7108 27.3291C23.0574 27.3588 22.4083 27.2108 21.8323 26.901C21.2563 26.5912 20.775 26.1312 20.4395 25.5697C20.1041 25.0083 19.927 24.3665 19.9271 23.7125Z" fill="white"/>
<defs>
<linearGradient id="paint0_linear_14_388" x1="0.381836" y1="0.545776" x2="40.9235" y2="41.0874" gradientUnits="userSpaceOnUse">
<stop stop-color="#678C92"/>
<stop offset="1" stop-color="#9ED5DE"/>
</linearGradient>
</defs>
</svg>
