<svg width="42" height="42" viewBox="0 0 42 42" fill="none" xmlns="http://www.w3.org/2000/svg">
<rect x="0.854004" y="0.88501" width="40.5417" height="40.5417" rx="2.89583" fill="#678C92"/>
<rect x="0.854004" y="0.88501" width="40.5417" height="40.5417" rx="2.89583" fill="url(#paint0_linear_14_578)" fill-opacity="0.2"/>
<path d="M23.8407 14.1121L23.4844 14.5026C22.6866 15.3808 22.0288 15.7735 21.4814 16.0304C20.9339 16.2867 20.4739 16.3633 20.022 16.7093C19.5402 17.0786 18.8402 17.7868 18.5452 19.0512C17.913 19.1892 17.4503 19.4314 17.0853 19.747C16.7247 20.0587 16.4531 20.4134 16.1186 20.7996C16.1158 20.8039 16.1202 20.8121 16.1186 20.8164C15.6384 21.3682 15.2186 21.9624 14.4039 22.2763L14.0645 22.4121V28.2165H24.418C25.0117 28.1844 25.4234 27.7733 25.6737 27.3676C25.9236 26.9624 26.0621 26.5236 26.1321 26.1629C26.3125 25.2439 26.6411 22.5984 26.6411 22.5984L26.6584 22.5479V22.4968C26.6411 22.1297 26.4901 21.8179 26.3016 21.529L26.9126 19.7133L27.8805 18.2534L28.152 17.8629L27.7952 17.5408L24.2312 14.4515L23.8407 14.1121ZM23.8749 15.6057L26.7089 18.0671L25.9621 19.1696L25.9116 19.2212L25.8943 19.306L25.4022 20.7653C25.1453 20.6594 24.8808 20.585 24.5875 20.5959H24.5533L21.1251 20.6127H20.582V22.7173C20.5059 23.3093 20.1768 23.5385 19.7673 23.702C19.6315 23.7569 19.6146 23.727 19.4957 23.7525V20.5964C19.4066 18.5831 20.1236 18.0036 20.6841 17.575C20.8389 17.4561 21.2924 17.3187 21.9398 17.0151C22.4807 16.7603 23.1531 16.3036 23.8749 15.6057ZM18.4437 20.2733C18.4415 20.3966 18.4029 20.4835 18.4095 20.6127V24.9577H18.9526C18.9526 24.9577 19.5337 24.9512 20.1578 24.703C20.7813 24.4548 21.5346 23.8736 21.6682 22.8531V21.699L24.5875 21.6821H24.6043C24.8428 21.6691 25.0766 21.751 25.2548 21.91C25.4329 22.069 25.5408 22.2921 25.5548 22.5305C25.5526 22.5392 25.5276 22.7407 25.5211 22.7852H23.2976V23.8715H25.3854C25.3278 24.2913 25.2751 24.5547 25.2154 24.9577H23.2976V26.044H25.0459C24.9817 26.3067 24.8787 26.5584 24.7401 26.7908C24.5918 27.0325 24.4642 27.1237 24.3502 27.1302H15.1507V23.0736C16.0311 22.6065 16.5786 21.9347 16.9327 21.5295C17.2998 21.1091 17.5519 20.7909 17.7984 20.579C17.9597 20.4411 18.2123 20.3623 18.4437 20.2733Z" fill="white"/>
<defs>
<linearGradient id="paint0_linear_14_578" x1="0.854004" y1="0.88501" x2="41.3957" y2="41.4267" gradientUnits="userSpaceOnUse">
<stop stop-color="#678C92"/>
<stop offset="1" stop-color="#9ED5DE"/>
</linearGradient>
</defs>
</svg>
