<svg width="41" height="41" viewBox="0 0 41 41" fill="none" xmlns="http://www.w3.org/2000/svg">
<rect x="0.229248" width="40.5417" height="40.5417" rx="2.89583" fill="#678C92"/>
<rect x="0.229248" width="40.5417" height="40.5417" rx="2.89583" fill="url(#paint0_linear_14_377)" fill-opacity="0.2"/>
<g clip-path="url(#clip0_14_377)">
<path d="M21.9979 20.3904L23.6763 19.2636C23.7925 19.201 23.8868 19.1044 23.9465 18.9866C24.0062 18.8689 24.0285 18.7358 24.0104 18.6051C23.9923 18.4743 23.9346 18.3523 23.8451 18.2552C23.7556 18.1582 23.6386 18.0909 23.5097 18.0623L16.1868 15.9574L18.2917 23.2701C18.3203 23.3989 18.3877 23.5159 18.4848 23.6053C18.5818 23.6948 18.7039 23.7524 18.8346 23.7704C18.9653 23.7885 19.0985 23.7662 19.2161 23.7064C19.3338 23.6467 19.4304 23.5524 19.4929 23.4362L20.6198 21.7685L21.0441 22.1929M25.3526 21.8882H24.0047C23.7902 21.8882 23.5845 21.9734 23.4328 22.1251C23.2811 22.2768 23.1959 22.4825 23.1959 22.697C23.1959 22.9115 23.2811 23.1172 23.4328 23.2689C23.5845 23.4205 23.7902 23.5057 24.0047 23.5057H24.5439C24.7583 23.5057 24.9641 23.5909 25.1157 23.7426C25.2674 23.8943 25.3526 24.1 25.3526 24.3145C25.3526 24.529 25.2674 24.7347 25.1157 24.8864C24.9641 25.038 24.7583 25.1232 24.5439 25.1232H23.1959M24.2743 25.1232V25.6624M24.2743 21.3491V21.8882" stroke="white" stroke-width="1.07833" stroke-linecap="round" stroke-linejoin="round"/>
</g>
<defs>
<linearGradient id="paint0_linear_14_377" x1="0.229248" y1="0" x2="40.7709" y2="40.5417" gradientUnits="userSpaceOnUse">
<stop stop-color="#678C92"/>
<stop offset="1" stop-color="#9ED5DE"/>
</linearGradient>
<clipPath id="clip0_14_377">
<rect width="12.94" height="12.94" fill="white" transform="translate(14.03 13.8008)"/>
</clipPath>
</defs>
</svg>
