<svg width="42" height="41" viewBox="0 0 42 41" fill="none" xmlns="http://www.w3.org/2000/svg">
<rect x="0.854004" y="0.00830078" width="40.5417" height="40.5417" rx="2.89583" fill="#678C92"/>
<rect x="0.854004" y="0.00830078" width="40.5417" height="40.5417" rx="2.89583" fill="url(#paint0_linear_14_408)" fill-opacity="0.2"/>
<g clip-path="url(#clip0_14_408)">
<path d="M22.7563 17.0212V25.4182C22.7563 25.5075 22.7784 25.5955 22.8206 25.6744C22.8628 25.7532 22.9238 25.8203 22.9981 25.8699L23.7442 26.3673C23.8166 26.4156 23.8995 26.4457 23.986 26.4552C24.0725 26.4647 24.16 26.4533 24.2412 26.422C24.3223 26.3906 24.3947 26.3402 24.4523 26.2749C24.5099 26.2097 24.551 26.1316 24.5721 26.0472L25.4712 22.4509" stroke="#F4F7FF" stroke-width="1.7375" stroke-linecap="round" stroke-linejoin="round"/>
<path d="M25.4702 22.451C26.1902 22.451 26.8808 22.165 27.3899 21.6558C27.899 21.1467 28.1851 20.4562 28.1851 19.7362C28.1851 19.0161 27.899 18.3256 27.3899 17.8165C26.8808 17.3073 26.1902 17.0213 25.4702 17.0213H22.7554C22.7554 17.0213 19.0597 17.0213 15.5033 14.0385C15.4242 13.972 15.3277 13.9294 15.2252 13.9157C15.1228 13.9021 15.0185 13.918 14.9248 13.9616C14.831 14.0052 14.7517 14.0747 14.6961 14.1618C14.6405 14.249 14.6109 14.3502 14.6108 14.4536V25.0187C14.6109 25.1221 14.6405 25.2233 14.6961 25.3105C14.7517 25.3976 14.831 25.4671 14.9248 25.5107C15.0185 25.5543 15.1228 25.5702 15.2252 25.5566C15.3277 25.5429 15.4242 25.5003 15.5033 25.4338C19.0597 22.451 22.7554 22.451 22.7554 22.451H25.4702Z" stroke="#F4F7FF" stroke-width="1.7375" stroke-linecap="round" stroke-linejoin="round"/>
</g>
<defs>
<linearGradient id="paint0_linear_14_408" x1="0.854004" y1="0.00830078" x2="41.3957" y2="40.55" gradientUnits="userSpaceOnUse">
<stop stop-color="#678C92"/>
<stop offset="1" stop-color="#9ED5DE"/>
</linearGradient>
<clipPath id="clip0_14_408">
<rect width="17.375" height="17.375" fill="white" transform="translate(12.4375 11.5917)"/>
</clipPath>
</defs>
</svg>
