<svg width="19" height="18" viewBox="0 0 19 18" fill="none" xmlns="http://www.w3.org/2000/svg">
<g clip-path="url(#clip0_14_515)">
<path d="M11.5883 3.88082C12.2955 4.01878 12.9453 4.36461 13.4547 4.87404C13.9642 5.38348 14.31 6.03334 14.448 6.74045L11.5883 3.88082ZM11.5883 0.984985C13.0574 1.14819 14.4274 1.80608 15.4733 2.85063C16.5191 3.89518 17.1787 5.26431 17.3438 6.73321L11.5883 0.984985ZM16.6198 12.5104V14.6823C16.6207 14.8839 16.5794 15.0835 16.4986 15.2682C16.4178 15.4529 16.2993 15.6188 16.1508 15.7551C16.0022 15.8914 15.8268 15.9952 15.6358 16.0598C15.4448 16.1243 15.2424 16.1483 15.0416 16.1302C12.8139 15.8881 10.674 15.1269 8.79386 13.9076C7.04465 12.7961 5.56163 11.3131 4.45011 9.56389C3.2266 7.67523 2.46519 5.52492 2.22756 3.28717C2.20946 3.08697 2.23326 2.8852 2.29742 2.6947C2.36158 2.5042 2.4647 2.32915 2.60022 2.18069C2.73575 2.03223 2.9007 1.91361 3.08457 1.83239C3.26845 1.75118 3.46722 1.70913 3.66823 1.70894H5.84011C6.19145 1.70549 6.53206 1.8299 6.79846 2.059C7.06485 2.2881 7.23885 2.60625 7.28802 2.95415C7.37969 3.6492 7.5497 4.33165 7.7948 4.98847C7.8922 5.2476 7.91328 5.52921 7.85554 5.79995C7.7978 6.07068 7.66366 6.31919 7.46901 6.51603L6.54959 7.43545C7.58018 9.24792 9.08087 10.7486 10.8933 11.7792L11.8128 10.8598C12.0096 10.6651 12.2581 10.531 12.5288 10.4732C12.7996 10.4155 13.0812 10.4366 13.3403 10.534C13.9971 10.7791 14.6796 10.9491 15.3746 11.0408C15.7263 11.0904 16.0475 11.2675 16.2771 11.5385C16.5067 11.8095 16.6287 12.1554 16.6198 12.5104Z" stroke="#486A6F" stroke-width="1.15833" stroke-linecap="round" stroke-linejoin="round"/>
</g>
<defs>
<clipPath id="clip0_14_515">
<rect width="17.375" height="17.375" fill="white" transform="translate(0.691406 0.260986)"/>
</clipPath>
</defs>
</svg>
